<svg version="1.0" xmlns="http://www.w3.org/2000/svg" viewBox="0 0 32.000000 32.000000" preserveAspectRatio="xMidYMid meet">
  <g transform="translate(0.000000,32.000000) scale(0.100000,-0.100000)" fill="#000000" stroke="none">
    <circle cx="160" cy="160" r="140" fill="#ffffff"/>
    <path  d="M85 297 c-45 -25 -85 -87 -85 -132 0 -54 40 -117 90 -143 56 -28 84 -28 140 1 33 16 51 34 68 67 28 56 28 84 -1 140 -41 83 -133 112 -212 67z m146 -20 c46 -30 71 -81 65 -131 -17 -138 -195 -169 -258 -45 -24 46 -22 89 5 130 44 67 127 87 188 46z"/>
    <path d="M188 193 l-47 -46 -26 17 c-23 15 -29 16 -41 4 -12 -12 -9 -19 24 -51 l38 -37 64 65 c57 58 63 67 49 80 -13 13 -20 9 -61 -32z"/>
  </g>
</svg>
